<svg width="71" height="73" viewBox="0 0 71 73" fill="none" xmlns="http://www.w3.org/2000/svg">
<rect y="2.18457" width="71" height="69.9077" rx="3" fill="#2D80CE"/>
<rect width="71" height="69.9077" rx="3" fill="#3290E8"/>
<rect x="9.83081" y="10.9231" width="51.3385" height="50.2462" rx="10" fill="#C9C8C8"/>
<rect x="9.83081" y="9.83081" width="51.3385" height="50.2462" rx="10" fill="#E7E7E7"/>
<rect width="9.83077" height="1.09231" transform="matrix(1 0 0 -1 0 30.5846)" fill="white"/>
<rect width="9.83077" height="1.09231" transform="matrix(1 0 0 -1 0 32.7693)" fill="white"/>
<rect width="9.83077" height="1.09231" transform="matrix(1 0 0 -1 0 34.9539)" fill="white"/>
<rect width="9.83077" height="1.09231" transform="matrix(1 0 0 -1 0 37.1384)" fill="white"/>
<rect width="9.83077" height="1.09231" transform="matrix(1 0 0 -1 0 39.3231)" fill="white"/>
<rect width="9.83077" height="1.09231" transform="matrix(1 0 0 -1 0 41.5077)" fill="white"/>
<rect width="9.83077" height="1.09231" transform="matrix(1 0 0 -1 0 43.6924)" fill="white"/>
<rect width="9.83077" height="1.09231" transform="matrix(1 0 0 -1 0 45.877)" fill="white"/>
<rect width="9.83077" height="1.09231" transform="matrix(1 0 0 -1 0 48.0616)" fill="white"/>
<rect width="9.83077" height="1.09231" transform="matrix(1 0 0 -1 0 50.2461)" fill="white"/>
<rect width="9.83077" height="1.09231" transform="matrix(-4.37114e-08 -1 -1 4.37114e-08 32.7692 9.83081)" fill="white"/>
<rect width="9.83077" height="1.09231" transform="matrix(-4.37114e-08 -1 -1 4.37114e-08 34.9539 9.83081)" fill="white"/>
<rect width="9.83077" height="1.09231" transform="matrix(-4.37114e-08 -1 -1 4.37114e-08 37.1384 9.83081)" fill="white"/>
<rect width="9.83077" height="1.09231" transform="matrix(-4.37114e-08 -1 -1 4.37114e-08 39.323 9.83081)" fill="white"/>
<rect width="9.83077" height="1.09231" transform="matrix(-4.37114e-08 -1 -1 4.37114e-08 41.5077 9.83081)" fill="white"/>
<rect width="9.83077" height="1.09231" transform="matrix(-4.37114e-08 -1 -1 4.37114e-08 43.6923 9.83081)" fill="white"/>
<rect width="9.83077" height="1.09231" transform="matrix(-4.37114e-08 -1 -1 4.37114e-08 45.8768 9.83081)" fill="white"/>
<rect width="9.83077" height="1.09231" transform="matrix(-4.37114e-08 -1 -1 4.37114e-08 48.0615 9.83081)" fill="white"/>
<rect width="9.83077" height="1.09231" transform="matrix(-4.37114e-08 -1 -1 4.37114e-08 50.2461 9.83081)" fill="white"/>
<rect width="9.83077" height="1.09231" transform="matrix(-4.37114e-08 -1 -1 4.37114e-08 52.4307 9.83081)" fill="white"/>
</svg>
