<svg width="388" height="165" viewBox="0 0 388 165" fill="none" xmlns="http://www.w3.org/2000/svg">
<g opacity="0.3">
<path d="M238.911 0.322266H47.432C46.0808 0.322266 44.9854 1.41882 44.9854 2.77148V126.135C44.9854 127.487 46.0808 128.584 47.432 128.584H238.911C240.263 128.584 241.358 127.487 241.358 126.135V2.77148C241.358 1.41882 240.263 0.322266 238.911 0.322266Z" fill="#E2E2E2"/>
<path d="M238.911 0.644531C239.475 0.644531 240.015 0.86862 240.414 1.2675C240.812 1.66638 241.036 2.20738 241.036 2.77148V126.135C241.036 126.699 240.812 127.24 240.414 127.639C240.015 128.038 239.475 128.262 238.911 128.262H47.432C46.8685 128.262 46.3281 128.038 45.9297 127.639C45.5312 127.24 45.3074 126.699 45.3074 126.135V2.77148C45.3074 2.20738 45.5312 1.66638 45.9297 1.2675C46.3281 0.86862 46.8685 0.644531 47.432 0.644531H238.911ZM238.911 0H47.432C46.6983 0.00170226 45.9951 0.294244 45.4763 0.813629C44.9574 1.33301 44.6652 2.03696 44.6635 2.77148V126.135C44.6652 126.869 44.9574 127.573 45.4763 128.093C45.9951 128.612 46.6983 128.905 47.432 128.906H238.911C239.645 128.905 240.348 128.612 240.867 128.093C241.386 127.573 241.678 126.869 241.68 126.135V2.77148C241.678 2.03696 241.386 1.33301 240.867 0.813629C240.348 0.294244 239.645 0.00170226 238.911 0Z" fill="#ABABAB"/>
<path d="M231.507 6.76758H54.8362V122.139H231.507V6.76758Z" fill="white"/>
<path d="M231.185 7.08984V121.816H55.1581V7.08984H231.185ZM231.829 6.44531H54.5143V122.461H231.829V6.44531Z" fill="#ABABAB"/>
<path d="M385.231 73.7988H250.887C249.536 73.7988 248.44 74.8954 248.44 76.248V162.229C248.44 163.581 249.536 164.678 250.887 164.678H385.231C386.583 164.678 387.678 163.581 387.678 162.229V76.248C387.678 74.8954 386.583 73.7988 385.231 73.7988Z" fill="#E2E2E2"/>
<path d="M385.231 74.1211C385.795 74.1211 386.335 74.3452 386.734 74.7441C387.132 75.1429 387.356 75.6839 387.356 76.248V162.229C387.356 162.793 387.132 163.334 386.734 163.732C386.335 164.131 385.795 164.355 385.231 164.355H250.887C250.608 164.355 250.332 164.3 250.074 164.194C249.816 164.087 249.582 163.93 249.384 163.732C249.187 163.535 249.031 163.301 248.924 163.042C248.817 162.784 248.762 162.508 248.762 162.229V76.248C248.762 75.6839 248.986 75.1429 249.384 74.7441C249.783 74.3452 250.323 74.1211 250.887 74.1211H385.231ZM385.231 73.4766H250.887C250.153 73.4783 249.45 73.7708 248.931 74.2902C248.412 74.8096 248.12 75.5135 248.118 76.248V162.229C248.12 162.963 248.412 163.667 248.931 164.186C249.45 164.706 250.153 164.998 250.887 165H385.231C385.965 164.998 386.668 164.706 387.187 164.186C387.706 163.667 387.998 162.963 388 162.229V76.248C387.998 75.5135 387.706 74.8096 387.187 74.2902C386.668 73.7708 385.965 73.4783 385.231 73.4766Z" fill="#ABABAB"/>
<path d="M380.68 78.375H255.432V160.102H380.68V78.375Z" fill="white"/>
<path d="M380.364 78.6973V159.779H255.754V78.6973H380.364ZM381.008 78.0527H255.111V160.424H381.008V78.0527Z" fill="#ABABAB"/>
<path d="M35.2955 82.8223H2.76851C1.41728 82.8223 0.321899 83.9188 0.321899 85.2715V161.99C0.321899 163.343 1.41728 164.439 2.76851 164.439H35.2955C36.6468 164.439 37.7421 163.343 37.7421 161.99V85.2715C37.7421 83.9188 36.6468 82.8223 35.2955 82.8223Z" fill="#E2E2E2"/>
<path d="M35.2956 83.1445C35.8591 83.1445 36.3995 83.3686 36.7979 83.7675C37.1964 84.1664 37.4202 84.7074 37.4202 85.2715V161.971C37.4202 162.535 37.1964 163.076 36.7979 163.475C36.3995 163.874 35.8591 164.098 35.2956 164.098H2.76853C2.20503 164.098 1.66461 163.874 1.26615 163.475C0.867695 163.076 0.643844 162.535 0.643844 161.971V85.2715C0.643844 84.7074 0.867695 84.1664 1.26615 83.7675C1.66461 83.3686 2.20503 83.1445 2.76853 83.1445H35.2956ZM35.2956 82.5H2.76853C2.03479 82.5017 1.33159 82.7942 0.812762 83.3136C0.29393 83.833 0.00170044 84.537 0 85.2715L0 161.971C0.00170044 162.705 0.29393 163.409 0.812762 163.929C1.33159 164.448 2.03479 164.74 2.76853 164.742H35.2956C36.0293 164.74 36.7325 164.448 37.2513 163.929C37.7702 163.409 38.0624 162.705 38.0641 161.971V85.2715C38.0624 84.537 37.7702 83.833 37.2513 83.3136C36.7325 82.7942 36.0293 82.5017 35.2956 82.5V82.5Z" fill="#ABABAB"/>
<path d="M35.8428 86.9344H2.22772V160.327H35.8428V86.9344Z" fill="white"/>
<path d="M35.5144 87.2567V160.005H2.57536V87.2567H35.5402H35.5144ZM36.184 86.6121H1.93152V160.649H36.184V86.6121Z" fill="#ABABAB"/>
<path d="M125.144 162.744V128.584H131.531C130.832 129.753 130.461 131.089 130.456 132.451V143.408C130.456 148.023 134.718 151.787 139.959 151.787H140.912C146.153 151.787 150.415 148.036 150.415 143.408V132.451C150.41 131.089 150.038 129.753 149.34 128.584H156.049V162.744H125.144Z" fill="white"/>
<path d="M155.727 128.906V162.422H125.466V128.906H130.99C130.432 130 130.138 131.21 130.134 132.438V143.395C130.134 148.242 134.564 152.109 139.959 152.109H140.912C146.327 152.109 150.737 148.21 150.737 143.421V132.464C150.732 131.236 150.439 130.026 149.881 128.932H155.727V128.906ZM156.371 128.287H148.728C149.597 129.507 150.067 130.966 150.074 132.464V143.421C150.074 147.862 145.966 151.465 140.893 151.465H139.94C134.866 151.465 130.758 147.862 130.758 143.421V132.464C130.765 130.966 131.235 129.507 132.104 128.287H124.822V163.092H156.371V128.262V128.287Z" fill="#ABABAB"/>
<path d="M178.873 156.943H102.642C101.646 156.943 100.839 157.751 100.839 158.748V162.873C100.839 163.87 101.646 164.678 102.642 164.678H178.873C179.869 164.678 180.676 163.87 180.676 162.873V158.748C180.676 157.751 179.869 156.943 178.873 156.943Z" fill="#E2E2E2"/>
<path d="M178.873 157.266C179.266 157.266 179.642 157.422 179.92 157.7C180.198 157.978 180.354 158.355 180.354 158.748V162.873C180.354 163.266 180.198 163.643 179.92 163.921C179.642 164.199 179.266 164.355 178.873 164.355H102.642C102.249 164.355 101.872 164.199 101.595 163.921C101.317 163.643 101.161 163.266 101.161 162.873V158.748C101.161 158.355 101.317 157.978 101.595 157.7C101.872 157.422 102.249 157.266 102.642 157.266H178.873ZM178.873 156.621H102.642C102.078 156.621 101.538 156.845 101.139 157.244C100.741 157.643 100.517 158.184 100.517 158.748V162.873C100.517 163.437 100.741 163.978 101.139 164.377C101.538 164.776 102.078 165 102.642 165H178.873C179.436 165 179.977 164.776 180.375 164.377C180.774 163.978 180.998 163.437 180.998 162.873V158.748C180.998 158.469 180.943 158.192 180.836 157.934C180.729 157.676 180.573 157.442 180.375 157.244C180.178 157.047 179.944 156.89 179.686 156.783C179.428 156.676 179.152 156.621 178.873 156.621V156.621Z" fill="#C4C4C4"/>
</g>
</svg>
